/* XPM */
static char *_154158044014a07c41dca15e3ed69bc[] = {
/* columns rows colors chars-per-pixel */
"48 48 73 1 ",
"  c #048EAC",
". c #129EBB",
"X c #008FC1",
"o c #0096C5",
"O c #0098C7",
"+ c #009CC9",
"@ c #0A9FCA",
"# c #02A1CC",
"$ c #0AA3CC",
"% c #04A8CF",
"& c #12A5CE",
"* c #1AA5CD",
"= c #15A8CF",
"- c #1BA8CF",
"; c #00ABD1",
": c #1DAAD0",
"> c #24ACD1",
", c #2BAED3",
"< c #30ADD2",
"1 c #2BB2D6",
"2 c #34B2D5",
"3 c #3BB5D6",
"4 c #31BADB",
"5 c #3CBCDB",
"6 c #42B5D6",
"7 c #45B8D8",
"8 c #4DBBD9",
"9 c #52BDDB",
"0 c #5BBFDC",
"q c #61BBDA",
"w c #39C0DD",
"e c #5CC1DC",
"r c #63C3DE",
"t c #6CC6DF",
"y c #71C6DF",
"u c #4EC5E0",
"i c #51C6E1",
"p c #6DC7E0",
"a c #6EC8E1",
"s c #75C9E1",
"d c #7ACCE3",
"f c #83CDE5",
"g c #89CDE5",
"h c #86D2E6",
"j c #8DD2E7",
"k c #8BD5E8",
"l c #90D2E2",
"z c #92D4E9",
"x c #99D4E8",
"c c #9AD8E9",
"v c #A4DCEC",
"b c #ACDDED",
"n c #B2DEED",
"m c #B4E2EE",
"M c #B9E1EF",
"N c #B4E6F1",
"B c #BAE4F0",
"V c #BAE8F2",
"C c #C3E4F1",
"Z c #CAE7F3",
"A c #C3E8F2",
"S c #CDEAF4",
"D c #D4ECF5",
"F c #D8EDF6",
"G c #DAF1F7",
"H c #D7F0F8",
"J c #DEF3F9",
"K c #E4F5F9",
"L c #EBF7FA",
"P c #EFF8FB",
"I c #F4FAFC",
"U c #FEFEFF",
"Y c None",
/* pixels */
"YYYYYYYYYYYYYYYYYYYY$###YYYYYYYYYYYYYYYYYYYYYYYY",
"YYYYYYYYYYYYYYYYY%#+O++YYYYYYYYYYYYYYYYYYYYYYYYY",
"YYYYYYYYYYYYYYY;#%5jAKIUUUUUYYYYYYYYYYYYYYYYYYYY",
"YYYYYYYYYYYYb4;wVUUUUUUUUUUUUUUIFCYYYYYYYYYYYYYY",
"YYYYYYYYYYFz1iKUUUUUUUUUUUUUUUUUUUFCCYYYYYYYYYYY",
"YYYYYYYYYSf9HUUUUUUUUUUUUUUUUUUUUUUIZCYYYYYYYYYY",
"YYYYYYYYZgjUUUUUUUUUUUUUUUUUUUUUUUUUUSMZYYYYYYYY",
"YYYYYYYZxBUUUUUUUUUUUUUUUUUUUUUUUUUUUUDbZYYYYYYY",
"YYYYYYSbZUUUUUUUUUUUUUUUUUUUUUUUUUUUUUUDxZYYYYYY",
"YYYYYYMFUUUUUUUUUUUUUUUUUUUUUUUUUUUUUUUUBgSYYYYY",
"YYYYYCSUUUUUUUUUUUUUUUUUUUUUUUUUUUUUUUUUUjfFYYYY",
"YYYYCZUUUUUUUUUUUUUUUUUUUUUUUUUUUUUUUUUUUU9zYYYY",
"YYYYCIUUUUUUUUUUUUUUUUUUUUUUUUUUUUUUUUUUUUF1bYYY",
"YYYYFUUUUUUUUUUUUUUUUUUUUUUUUUUUUUUUUUUUUUUu4YYY",
"YYYCUUUUUUPc9227aLUUUAr3<3rvIUUUUNe2,7pbIUUJ;YYY",
"YYYFUUUUUB-OooOoXSUUj+ooOOoXbUUUaOooOooXSUUU5;YY",
"YYYIUUUUB+O&sBAmfHUD++6mABc7BUUmO+9BAmj7SUUUN%YY",
"YYYUUUUI>O:FUUUUUUUjO&KUUUUUUUUaO>IUUUUUUUUUU%%Y",
"YYYUUUUv++bUUUUUIUUdo&KUUUIIUUUro>IUUIIUUUUUU5#Y",
"YYYUIUUrO>IUUUUUUUUvO#3BLUUUUUUfo#9AIUUUUUUUUh+Y",
"YYUUUUU2o8UUUUUUUUUI2oO+&3fKUUUK:OO+=7jPUUUUUAO$",
"YYUUUUU2o9UIUUUUUUUUId<#OoO&SUUUKt>#ooO>JUUUUJO#",
"YYUUUUU3o3UUUUUUUUUUUUUFbe#O7UUUUUUFv7#orUUUUI+#",
"YYUUUUUtO&JUUUUUUUUUUIUUUUeo:IUIUIUUUU6O<UUUUUY#",
"#YUUUUUmO+rUUUUUUUUUUUUUUUto:IUUUUUUUU8O2UUUUUYY",
"#+IUUUUU8O#eDIIISKUvvKIULc$O9UUcmLIILh#otUUUUUYY",
"#OKUUUUUL3Oo+-:=OnUqX$-:$OO&DUU6X$::$Oo>KUUUUUYY",
"$OAUUUUUUUx2$++#-SUm3&++#:rGUUUb2$++#>aLUUUUUUYY",
"Y+hUUUIUUUUULHDKUUUUUPGDKIUUUUUUULFDJUUUUUUUUYYY",
"Y+5UUUUUUUUUUUUUUUUUUUUUUUUUUUUUUUUUUUUUUUUUUYYY",
"Y%%UUUUUUUUUUUUUUUUUUUUUUUUUUUUUUUUUUUUUUUUUUYYY",
"YY%NUUUUUUUUUUUUUUUUUUUUUUUUUUUUUUUUUUUUUUUUIYYY",
"YY;5UUUUUUUUUUUUUUUUUUUUUUUUUUUUUUUUUUUUUUUUFYYY",
"YYY;JUUUUUUUUUUUUUUUUUUUUUUUUUUUUUUUUUUUUUUUCYYY",
"YYY4uUUUUUUUUUUUUUUUUUUUUUUUUUUUUUUUUUUUUUUFYYYY",
"YYYv1DUUUUUUUUUUUUUUUUUUUUUUUUUIUUUUUUUUUUICYYYY",
"YYYYz9UUUUUUmFUUUUUUUUUUUUUUUUUUUUUUUUUUUUZCYYYY",
"YYYYFfjUUUUG .zz26<hUS7IUc>>bI7LI8LUUUUUUSCYYYYY",
"YYYYYSgBUUUIlmIIJPS*IdoBD&Am-B+7I>LUUUUUFBYYYYYY",
"YYYYYYZxSUUUUUUUUe2tJ<s9geUU9y99e3KUUUUSbZYYYYYY",
"YYYYYYYZbDUUUUUUUv+Id&9*d>DA-b2L<@PUUUBxZYYYYYYY",
"YYYYYYYYZMSUUUUUUUh97DUztc:>vL7UD2PUUzgZYYYYYYYY",
"YYYYYYYYYYCZIUUUUUUIIUUUIUIIUUUUUUUG9fZYYYYYYYYY",
"YYYYYYYYYYYCCDUUUUUUUUUUUUUUUIUUUKu,zDYYYYYYYYYY",
"YYYYYYYYYYYYYYCFIUUUUUUUUUUUUUUNw;4vYYYYYYYYYYYY",
"YYYYYYYYYYYYYYYYYYYYUUUUUIKAj5%%;YYYYYYYYYYYYYYY",
"YYYYYYYYYYYYYYYYYYYYYYYYY+OO+#%YYYYYYYYYYYYYYYYY",
"YYYYYYYYYYYYYYYYYYYYYYYY###$YYYYYYYYYYYYYYYYYYYY"
};
